<svg id="Layer_1" data-name="Layer 1" xmlns="http://www.w3.org/2000/svg" xmlns:xlink="http://www.w3.org/1999/xlink" viewBox="0 0 805.8 668.32"><defs><style>.cls-1{fill:#464655;}.cls-2{fill:#5b5d6e;}.cls-3{fill:#c7cfe2;}.cls-4{fill:url(#Nouvelle_nuance_de_dégradé_1);}.cls-5{fill:url(#Dégradé_sans_nom_148);}.cls-6{fill:url(#Dégradé_sans_nom_148-6);}.cls-7{fill:url(#Dégradé_sans_nom_148-7);}.cls-8{fill:url(#Dégradé_sans_nom_148-9);}</style><linearGradient id="Nouvelle_nuance_de_dégradé_1" x1="418.73" y1="401.6" x2="-15.43" y2="13.14" gradientUnits="userSpaceOnUse"><stop offset="0" stop-color="#f4eaab"/><stop offset="0.02" stop-color="#efe2a0"/><stop offset="0.05" stop-color="#ecdd99"/><stop offset="0.14" stop-color="#ebdc97"/><stop offset="0.19" stop-color="#e4d289"/><stop offset="0.31" stop-color="#d6bc6b"/><stop offset="0.38" stop-color="#d0b45f"/><stop offset="0.39" stop-color="#d0b35f"/><stop offset="0.64" stop-color="#cfa758"/><stop offset="0.91" stop-color="#cc8b48"/></linearGradient><linearGradient id="Dégradé_sans_nom_148" x1="-91.44" y1="605.49" x2="-90.96" y2="605.49" gradientUnits="userSpaceOnUse"><stop offset="0.1" stop-color="#f4eaab"/><stop offset="0.18" stop-color="#f0e4a3"/><stop offset="0.18" stop-color="#f0e4a3"/><stop offset="0.24" stop-color="#ebdc97"/><stop offset="0.3" stop-color="#eada95"/><stop offset="0.33" stop-color="#e6d58d"/><stop offset="0.35" stop-color="#e0cc80"/><stop offset="0.37" stop-color="#d7bf6e"/><stop offset="0.38" stop-color="#d0b45f"/><stop offset="0.39" stop-color="#d0b35f"/><stop offset="0.64" stop-color="#cfa758"/></linearGradient><linearGradient id="Dégradé_sans_nom_148-6" x1="-91.39" y1="601.83" x2="-90.91" y2="601.83" xlink:href="#Dégradé_sans_nom_148"/><linearGradient id="Dégradé_sans_nom_148-7" x1="-91.43" y1="601.83" x2="-90.94" y2="601.83" xlink:href="#Dégradé_sans_nom_148"/><linearGradient id="Dégradé_sans_nom_148-9" x1="-91.41" y1="601.83" x2="-90.93" y2="601.83" xlink:href="#Dégradé_sans_nom_148"/></defs><title>logo</title><path class="cls-1" d="M747.44,492.94,772,430.35s37-47.54-183.2-96.17C500.29,314.63,447.07,294.6,415,277.63l16.72-42.9c-57.54-21.4-64.42-6-65.12-.13-.08-.43-.1-.67-.1-.67L320.81,351.15s23.86,32.4,148.28,74.06l-15.86,40.71C732,577,730.46,536.49,730.46,536.49ZM391,230l-5.86,15,.53.19c-.07.09-.24.12-.28.23l-12.67-5.61C375.88,232.64,383,230.15,391,230Zm-21.68,40.51h0l-.77-.68c-.1-.1-.22-.19-.31-.29l-3.79-3.44,5.44-14c4.12,3.47,8,7.54,8,7.54l-5.34,13.69C371.42,272.38,370.35,271.43,369.29,270.49Zm28.95-40.09a81.53,81.53,0,0,1,11.48,2.31l-5.07,13a66.09,66.09,0,0,0-11.62-2Zm-20,47.37,5.21-13.36c2.85,2.26,5.93,4.51,9.29,6.75l-5.1,13.09C384.32,282.11,381.19,280,378.25,277.77Zm38.12-43.06c3.28,1.1,5.88,2.13,7.29,2.71l-5.31,12.8c-2.32-1-4.67-1.79-7-2.56Zm-70.81,127,5.21-13.37c2.84,2.27,5.92,4.52,9.29,6.75L355,368.13C351.63,366,348.5,363.83,345.56,361.66Zm48.1-73.77,5-12.94c3.06,1.88,6.31,3.76,9.73,5.61l-5,12.82C400,291.58,396.8,289.74,393.66,287.89ZM361,371.77l5-12.94c3.08,1.88,6.31,3.75,9.73,5.61l-5,12.82C367.35,375.46,364.11,373.62,361,371.77Zm48.63-75.13,5-12.82c3.22,1.64,6.56,3.26,10,4.91l-5,12.75C416.22,299.87,412.86,298.27,409.6,296.64Zm-32.69,83.87,5-12.82q4.84,2.47,10,4.9l-5,12.75C383.52,383.75,380.16,382.15,376.91,380.51Zm49-76.16,5-12.74q5,2.24,10.19,4.42l-5,12.74C432.69,307.33,429.3,305.84,426,304.35Zm-32.69,83.87,5-12.73c3.31,1.49,6.71,2.95,10.21,4.42l-5,12.75C400,391.22,396.62,389.72,393.27,388.22Zm55.37-74.39c-2.05-.8-4.05-1.65-6.06-2.46l4.95-12.71c3.36,1.37,6.82,2.71,10.33,4.06l-4.95,12.71C451.5,314.9,450.05,314.37,448.64,313.83ZM416,397.71c-2.06-.79-4.05-1.63-6.07-2.45l5-12.71q5,2.06,10.33,4.07l-5,12.71C418.81,398.78,417.36,398.25,416,397.71Zm43.44-79.83,4.95-12.72q5.13,1.9,10.46,3.77l-5,12.71C466.34,320.4,462.84,319.16,459.39,317.88Zm-32.68,83.88,5-12.72q5.13,1.9,10.46,3.77l-4.95,12.7C433.65,404.28,430.16,403.05,426.71,401.76Zm49.66-77.83,5-12.72q5.22,1.77,10.56,3.53l-4.95,12.72Q481.65,325.74,476.37,323.93Zm-32.68,83.88,5-12.71c3.49,1.19,7,2.36,10.57,3.53l-5,12.72Q449,409.61,443.69,407.81Zm49.84-78.23,5-12.71q5.26,1.68,10.64,3.32l-5,12.75Q498.85,331.31,493.53,329.58ZM510.8,335l5-12.73q5.31,1.57,10.7,3.13l-5,12.75C517.94,337.08,514.39,336,510.8,335ZM762,442.55l-7,18.06.09.23c-2,.85-7.28,2.3-19,1.84l8-20.56a18.76,18.76,0,0,0,1.86.48l1.24.3C753.41,444.05,760.4,442.85,762,442.55Zm-3.5-38.41h0l.67.49,0,.05c1.33,1.18,4.48,4.06,4.89,5.55l-5.08,13-8.25-7.64-.3-.23,5.19-13.32C756.94,403,757.89,403.69,758.5,404.14Zm-30,58c-4.33-.39-9.32-1-15-1.93l7.67-19.67c6.35.91,11.33,1.35,15.18,1.53Zm21.27-64.06-5.18,13.23c-2.46-1.62-5.67-3.66-9.59-6l5.14-13.16C743.83,394.4,747.06,396.4,749.72,398.11Zm-35.93,41.31L706.15,459c-4.47-.81-9.34-1.78-14.64-2.94l7.6-19.49C704.55,437.74,709.42,438.67,713.79,439.42ZM734,388.76l-5.11,13.12c-3-1.68-6.27-3.45-9.86-5.3l5.09-13.08C727.7,385.32,730.94,387.06,734,388.76Zm-49.59,65.7q-6.78-1.59-14.41-3.55l7.58-19.42c5.17,1.34,9.94,2.49,14.41,3.52Zm33.49-74-5.09,13.06c-3.18-1.55-6.53-3.12-10.08-4.72l5.06-13C711.34,377.32,714.68,378.88,717.89,380.42ZM701.43,373l-5,13c-3.29-1.4-6.74-2.79-10.3-4.19l5-13Q696.5,370.91,701.43,373Zm-30.9,56.67L663,449.07c-4.52-1.22-9.28-2.55-14.23-4l7.55-19.37Q663.77,427.86,670.53,429.66Zm14.13-63.32-5.06,13c-3.36-1.23-6.89-2.46-10.48-3.66l5-13C677.77,363.91,681.28,365.11,684.66,366.34Zm-35.35,57.34L641.76,443c-4.51-1.33-9.23-2.77-14.1-4.3l7.55-19.34C640.07,420.91,644.83,422.36,649.31,423.68Zm18.26-63.13-5.05,13c-3.48-1.08-7-2.16-10.67-3.2l5-13C660.57,358.36,664.11,359.46,667.57,360.55Zm-46.81,76q-6.78-2.16-14-4.54l7.54-19.32c4.85,1.6,9.49,3.1,14,4.53Zm29.42-81-5.07,13q-5.33-1.41-10.87-2.68l5.08-13.06C643,353.67,646.64,354.6,650.18,355.54Zm-50.29,74.19c-4.5-1.52-9.16-3.1-13.93-4.75l7.54-19.31c4.78,1.65,9.41,3.24,13.93,4.74Zm28.46-79.4c1.41.3,2.75.64,4.13.93l-5.07,13c-.63-.12-1.21-.29-1.86-.41-2.38-.49-5.55-1.15-9.16-1.93l5.09-13.07C623.77,349.37,626.07,349.87,628.35,350.33ZM579.14,422.6c-4.5-1.57-9.15-3.22-13.88-4.92l7.52-19.3c4.78,1.71,9.37,3.34,13.87,4.91Zm35.48-75.17-5.09,13c-3.37-.74-7-1.54-10.95-2.45l5.06-13C607.33,345.84,611,346.64,614.62,347.43Zm-17.81-4-5,13c-3.48-.82-7.1-1.67-10.9-2.59l5-12.93C589.54,341.78,593.19,342.63,596.81,343.46ZM566,395.91l-7.52,19.32q-6.76-2.44-13.8-5.08l7.53-19.31Q559.26,393.47,566,395.91Zm13.1-56.63-5,12.9-10.87-2.72,5-12.87C571.85,337.51,575.47,338.41,579.1,339.28Zm-41.18,68.33c-4.52-1.68-9.07-3.4-13.76-5.18l7.52-19.32q7,2.68,13.75,5.2Zm23.54-72.72-5,12.83-10.82-2.86,5-12.81C554.24,333,557.85,334,561.46,334.89Zm-17.56-4.65-5,12.79c-3.55-1-7.14-2-10.76-3l5-12.77C536.71,328.28,540.31,329.26,543.9,330.24ZM497.19,392l7.61-19.27c6.91,2.73,13.6,5.32,20.13,7.84l-7.52,19.3c-3.18-1.24-6.29-2.42-9.56-3.7ZM478.33,468.7c-3.59-1.39-7.25-2.84-10.93-4.28L475,445.1c7,2.76,13.78,5.4,20.4,7.95l-7.55,19.34C484.69,471.17,481.61,470,478.33,468.7Zm16,6.18,7.55-19.37q7.17,2.75,14,5.33l-7.55,19.35C503.78,478.46,499.14,476.72,494.34,474.88Zm20.52,7.74,7.56-19.37,14.09,5.17-7.57,19.38Q522.07,485.29,514.86,482.62Zm20.61,7.53L543,470.8c4.85,1.73,9.55,3.4,14.14,5l-7.56,19.37C545,493.57,540.3,491.89,535.47,490.15Zm20.69,7.31,7.55-19.4c4.88,1.69,9.62,3.32,14.21,4.84l-7.57,19.41C565.76,500.77,561,499.14,556.16,497.46Zm20.77,7.06,7.56-19.4c5,1.63,9.7,3.15,14.32,4.62l-7.58,19.4Q584.35,506.94,576.93,504.52Zm20.93,6.72,7.56-19.44c5,1.54,9.83,3,14.4,4.38l-7.57,19.44C607.65,514.26,602.83,512.79,597.86,511.24Zm21.07,6.33,7.59-19.47c5.08,1.46,9.94,2.82,14.53,4l-7.62,19.5C628.85,520.4,624,519,618.93,517.57Zm21.25,5.84,7.59-19.51c5.29,1.35,10.16,2.53,14.73,3.57L654.87,527C650.27,526,645.39,524.77,640.18,523.41Zm21.52,5.17,7.64-19.6c5.55,1.19,10.54,2.13,15,2.9l-7.68,19.7C672.07,530.77,667.11,529.78,661.7,528.58Zm21.9,4.21L691.33,513c6.5.93,11.59,1.39,15.5,1.56l-7.89,20.22C694.53,534.34,689.44,533.72,683.6,532.79Zm22.58,2.45,8.06-20.71c.62.19,1.24.34,1.87.47l1.24.31c7.13,1.28,15.21-.44,15.21-.44l-7.13,18.31.09.23C723.53,534.26,718.19,535.76,706.18,535.24Z" transform="translate(31.47)"/><circle class="cls-2" cx="287.47" cy="256" r="176.55"/><circle class="cls-1" cx="287.47" cy="256" r="158.9"/><circle class="cls-3" cx="287.47" cy="256" r="35.31"/><path class="cls-4" d="M256,0C114.61,0,0,114.61,0,256S114.61,512,256,512,512,397.39,512,256,397.39,0,256,0Zm0,35.31a70.62,70.62,0,1,1-70.62,70.62A70.62,70.62,0,0,1,256,35.31ZM114.76,326.62A70.62,70.62,0,1,1,185.38,256,70.62,70.62,0,0,1,114.76,326.62ZM256,467.86a70.62,70.62,0,1,1,70.62-70.62A70.62,70.62,0,0,1,256,467.86ZM397.24,326.62A70.62,70.62,0,1,1,467.86,256,70.62,70.62,0,0,1,397.24,326.62Z" transform="translate(31.47)"/><path class="cls-1" d="M203,211.86a8.81,8.81,0,0,1-6.24-2.58L90.86,103.35a8.83,8.83,0,1,1,12.49-12.49L209.28,196.79A8.83,8.83,0,0,1,203,211.86Z" transform="translate(31.47)"/><path class="cls-1" d="M414.9,423.72a8.8,8.8,0,0,1-6.24-2.58L302.72,315.21a8.83,8.83,0,0,1,12.49-12.49L421.14,408.65a8.83,8.83,0,0,1-6.24,15.07Z" transform="translate(31.47)"/><path class="cls-1" d="M309,211.86a8.83,8.83,0,0,1-6.24-15.07L408.65,90.86a8.83,8.83,0,1,1,12.49,12.48L315.21,209.28A8.83,8.83,0,0,1,309,211.86Z" transform="translate(31.47)"/><path class="cls-1" d="M97.1,423.72a8.83,8.83,0,0,1-6.24-15.07L196.79,302.72a8.83,8.83,0,0,1,12.49,12.49L103.35,421.14A8.84,8.84,0,0,1,97.1,423.72Z" transform="translate(31.47)"/><circle class="cls-2" cx="287.47" cy="256" r="17.65"/><path class="cls-5" d="M578.78,667.32H559.33q0-21.17-3.21-61.26T552.71,558h-1q-10.33,30.88-26.22,67t-15.88,42.31h-14q0-6.65-14.79-43.07T462.1,575.48q-3.93-12.35-5.38-17.48h-1q-.3,13-4.08,52.53t-3.77,56.79H430q0-.95,7-52.28t7-71.38h27.21q0,10.46,16.54,52.24t16.55,50.62h1q0-8.84,18.63-50.76t18.62-52.1h26.57q0,20,4.77,71T578.78,667.32Z" transform="translate(31.47)"/><path class="cls-5" d="M414,667.32H392.18q0-6.36-13-40H319.46q-12.82,33.13-12.82,40h-20.9q0-3.51,26.69-60.73t26.69-62.93h24q0,5.61,25.45,62T414,667.32ZM323.81,614.9h50.58q-24.31-55.75-24.31-59.27H349Q349,558.59,323.81,614.9Z" transform="translate(31.47)"/><path class="cls-5" d="M274.36,651.46l-.61,15.86H185l.93-11.4q13-16.71,38-54.13,26.79-40.37,26.79-44.93v-1q-22.65,0-64.23,2.38l.51-14.54h84.41l-.83,11.78q-11.79,15.28-36.31,53.66Q208.69,649,208.68,653v1Q230.1,654,274.36,651.46Z" transform="translate(31.47)"/><path class="cls-5" d="M173.63,667.32H151.8q0-6.36-13-40H79.08q-12.83,33.13-12.82,40H45.36q0-3.51,26.69-60.73t26.68-62.93h24q0,5.61,25.45,62T173.63,667.32ZM83.42,614.9H134q-24.3-55.75-24.3-59.27h-1.14Q108.56,558.59,83.42,614.9Z" transform="translate(31.47)"/><path class="cls-5" d="M43.92,543.66l-.78,14.16q-26.05-1.14-59-1.14,1.17,15.77,1.18,43.5,23,0,44.73-.76v13.76q-20.94-.75-44.73-.76,0,37.16,1.08,54.9H-31.47q1.38-29.45,1.38-65,0-33.43-1.38-58.7Z" transform="translate(31.47)"/><path class="cls-6" d="M578.65,668.32H559.21q0-22.79-3.21-65.87t-3.41-51.68h-1Q541.21,584,525.34,622.83t-15.87,45.49h-14q0-7.16-14.79-46.31T462,569.57q-3.93-13.29-5.37-18.8h-1q-.31,14-4.09,56.47t-3.77,61.08H429.94q0-1,7-56.22t7-76.75h27.2q0,11.24,16.55,56.17T504.3,646h1q0-9.51,18.62-54.59t18.6-56h26.58q0,21.54,4.76,76.39T578.65,668.32Z" transform="translate(31.47)"/><path class="cls-7" d="M413.91,668.32H392.1q0-6.84-13-43H319.39q-12.81,35.63-12.82,43H285.68q0-3.78,26.68-65.31T339,535.35h24q0,6,25.45,66.69T413.91,668.32ZM323.74,612h50.57Q350,552,350,548.21h-1.15Q348.86,551.39,323.74,612Z" transform="translate(31.47)"/><path class="cls-7" d="M274.3,651.26l-.61,17.06H185l.93-12.26q13-18,38-58.21,26.79-43.4,26.78-48.31v-1.12q-22.63,0-64.22,2.55l.52-15.62h84.39L270.48,548q-11.79,16.44-36.3,57.7-25.55,42.9-25.54,47.19V654Q230,654,274.3,651.26Z" transform="translate(31.47)"/><path class="cls-8" d="M173.58,668.32H151.76q0-6.84-13-43H79.06q-12.82,35.63-12.82,43H45.35q0-3.78,26.68-65.31t26.68-67.66h24q0,6,25.44,66.69T173.58,668.32ZM83.4,612H134q-24.3-60-24.3-63.74h-1.13Q108.54,551.39,83.4,612Z" transform="translate(31.47)"/><path class="cls-7" d="M43.9,535.35l-.79,15.22q-26-1.23-59-1.23,1.17,16.95,1.18,46.78,23,0,44.72-.82v14.8q-21-.81-44.72-.81,0,39.93,1.07,59H-31.47q1.38-31.67,1.38-69.85,0-36-1.38-63.12Z" transform="translate(31.47)"/></svg>